<svg t="1591254151959" class="icon" viewBox="0 0 1028 1024" version="1.1" xmlns="http://www.w3.org/2000/svg" p-id="17060" width="200" height="200"><path d="M519.296 286.72c-61.504 0-111.936 50.432-111.936 112.384v74.816h223.744V399.104c0-61.824-50.048-112.128-111.808-112.384z" fill="#0075D5" p-id="17061"></path><path d="M516.032 0a512 512 0 1 0 0 1024 512 512 0 0 0 0-1024z m246.208 810.688a37.568 37.568 0 0 1-37.632 37.184H313.984a37.504 37.504 0 0 1-37.248-37.184V511.104a37.504 37.504 0 0 1 37.248-37.184h37.12V399.104v-1.344a167.68 167.68 0 0 1 168.128-167.232h1.536a167.552 167.552 0 0 1 166.656 168.576v74.816h37.056a37.76 37.76 0 0 1 37.76 37.184v299.584z" fill="#0075D5" p-id="17062"></path></svg>