<svg t="1591254106861" class="icon" viewBox="0 0 1024 1024" version="1.1" xmlns="http://www.w3.org/2000/svg" p-id="12624" width="200" height="200"><path d="M466.6 66.2C748.8 38.5 984.1 272.8 958 554.7c-19.1 206.5-182.8 375.7-388.7 401.7-104.7 13.2-202.9-10.5-284.8-58.9l-125.6 43.3c-13.3 4.6-26.6-7-23.9-20.8l25.4-131C90 699.8 52.3 583.4 67.2 457.8 91.7 251.6 259.9 86.6 466.6 66.2z m0.6 401c-24.7 0-44.8 20.1-44.8 44.8 0 24.7 20.1 44.8 44.8 44.8H736c24.7 0 44.8-20.1 44.8-44.8 0-24.7-20.1-44.8-44.8-44.8H467.2zM288 556.8c24.7 0 44.8-20.1 44.8-44.8 0-24.7-20.1-44.8-44.8-44.8-24.7 0-44.8 20.1-44.8 44.8 0 24.7 20.1 44.8 44.8 44.8z" fill="#FF3232" p-id="12625"></path></svg>