<svg t="1591579643836" class="icon" viewBox="0 0 1024 1024" version="1.1" xmlns="http://www.w3.org/2000/svg" p-id="3795" width="200" height="200"><path d="M1024 512A512 512 0 1 1 512 0a512 512 0 0 1 512 512z m-192.796444 31.573333a319.544889 319.544889 0 0 0-152.291556-272.213333 42.382222 42.382222 0 0 0-44.373333 72.248889 234.382222 234.382222 0 1 1-253.610667 5.404444 42.382222 42.382222 0 0 0-47.445333-70.257777 319.260444 319.260444 0 1 0 497.777777 264.817777z m-276.48-11.662222V203.662222a42.382222 42.382222 0 0 0-84.764445 0V531.911111a42.382222 42.382222 0 0 0 84.764445 0z m0 0" fill="#08B192" p-id="3796"></path></svg>