<svg t="1591253717159" class="icon" viewBox="0 0 1024 1024" version="1.1" xmlns="http://www.w3.org/2000/svg" p-id="3250" width="200" height="200"><path d="M511.989792 0c-282.322241 0-511.989792 229.667551-511.989792 511.989792 0 282.322241 229.667551 512.010208 511.989792 512.010208 282.322241 0 512.010208-229.667551 512.010208-512.010208-0.020417-282.322241-229.687967-511.989792-512.010208-511.989792z m147.163632 585.142857c20.212541 0 36.566324 16.353783 36.566325 36.566325a36.545908 36.545908 0 0 1-36.566325 36.566324h-110.597308v108.718971a36.545908 36.545908 0 1 1-73.132649 0V658.275506H366.724913a36.545908 36.545908 0 0 1-36.566325-36.566324c0-20.212541 16.353783-36.566324 36.566325-36.566325h108.678138v-73.153065H366.724913a36.545908 36.545908 0 0 1-36.566325-36.566325c0-20.212541 16.353783-36.566324 36.566325-36.566324h108.678138v-22.601296l-135.342359-135.566943c-14.332529-14.271279-13.781278-37.403409 0.469584-51.715521 14.291696-14.373363 37.382993-14.291696 51.674689-0.081667l122.949416 122.704416 116.150653-122.030665a36.505074 36.505074 0 0 1 51.593022-1.286253c14.618363 13.924195 14.924614 37.117576 0.980002 51.715522l-135.342359 141.569455v17.292952h110.597309a36.545908 36.545908 0 1 1 0 73.132649h-110.597309v73.153065h110.617725z" fill="#4795F4" p-id="3251"></path></svg>