<svg t="1591254441420" class="icon" viewBox="0 0 1026 1024" version="1.1" xmlns="http://www.w3.org/2000/svg" p-id="20422" width="200" height="200"><path d="M512 0C229.19446 0 0 229.19446 0 512S229.19446 1024 512 1024 1024 794.80554 1024 512 794.80554 0 512 0z m271.270175 695.809418c0 48.221607-39.239151 87.460757-87.460757 87.460757H328.190582c-48.221607 0-87.460757-39.239151-87.460757-87.460757V328.190582c0-48.221607 39.239151-87.460757 87.460757-87.460757h204.421791v85.380609H328.190582L326.110434 695.90397l369.793536 2.080148 2.080148-206.407387h85.38061v204.232687zM512 572.324284l-60.324284-60.324284 287.6277-287.627701 60.324285 60.324285-287.627701 287.6277z" fill="#EB662B" p-id="20423"></path></svg>