<svg t="1591254069865" class="icon" viewBox="0 0 1024 1024" version="1.1" xmlns="http://www.w3.org/2000/svg" p-id="11892" width="200" height="200"><path d="M512 512m-512 0a512 512 0 1 0 1024 0 512 512 0 1 0-1024 0Z" fill="#3C9AEA" p-id="11893"></path><path d="M512 813.110533c-37.627456 0-101.672899-25.266746-145.086864-46.908087-27.145089-13.53215-50.503195-27.549034-67.569862-40.545957-22.853176-17.41002-33.507219-32.143905-33.507219-46.352663V323.751637l15.65286 0.525128c1.848047 0.060592 3.766785 0.060592 5.806706 0.060592 85.919053 0 164.385325-42.404103 190.591243-83.394398l0.100986-0.15148c0.171677-0.262564 4.322209-6.564103 9.65428-12.916134 9.785562-11.684103 17.914951-16.915187 26.377594-16.975779h0.151479c8.391953 0 16.622327 5.160394 26.660355 16.723314 5.513846 6.352032 9.846154 12.65357 10.027929 12.916134l0.272663 0.403945c25.862564 40.424773 99.69357 83.394398 185.56213 83.394398 2.009625 0 4.01925-0.030296 6.018777-0.07069l15.440789-0.29286v355.330019c0 14.77428-10.633846 29.831321-33.446627 47.382722-16.995976 13.067613-40.404576 27.074398-67.691045 40.505562-46.453649 22.853176-109.307456 45.918422-145.016174 45.918423zM296.142012 679.111953c0.201972 0.797791 2.676134 8.593925 24.438659 24.600236 16.006312 11.77499 37.708245 24.509349 62.762919 36.829665 50.624379 24.893097 103.531045 42.282919 128.65641 42.282919 25.953452 0 79.526627-17.329231 130.282288-42.151637 25.327337-12.380907 46.988876-25.175858 62.641736-37.001341 21.752426-16.430454 22.933964-24.337673 22.933964-24.408363v-324.771598c-83.263116-2.666036-167.142249-42.616174-202.09357-96.997238-3.564813-5.160394-8.109191-10.633846-11.48213-13.996687-3.241657 3.36284-7.563866 8.7757-10.916608 13.855306-34.345404 53.603471-122.233688 94.462485-207.223668 97.138619v324.620119z m214.575463-438.603235z m7.048837-0.050493z" fill="#FFFFFF" p-id="11894"></path><path d="M611.804655 527.147929H412.195345c-8.361657 0-15.147929-6.786272-15.147929-15.147929s6.786272-15.147929 15.147929-15.147929h199.60931c8.361657 0 15.147929 6.786272 15.147929 15.147929s-6.786272 15.147929-15.147929 15.147929zM611.804655 606.088836H412.195345c-8.361657 0-15.147929-6.786272-15.147929-15.147929s6.786272-15.147929 15.147929-15.147929h199.60931c8.361657 0 15.147929 6.786272 15.147929 15.147929s-6.786272 15.147929-15.147929 15.147929z" fill="#FFFFFF" p-id="11895"></path><path d="M512 672.648836c-8.361657 0-15.147929-6.786272-15.147929-15.147929V489.954714c0-8.361657 6.786272-15.147929 15.147929-15.147929s15.147929 6.786272 15.147929 15.147929v167.546193c0 8.361657-6.786272 15.147929-15.147929 15.147929z" fill="#FFFFFF" p-id="11896"></path><path d="M509.828797 502.214438c-3.87787 0-7.75574-1.474398-10.714635-4.433294l-77.557397-77.557396c-5.917791-5.917791-5.917791-15.501381 0-21.419172 5.917791-5.917791 15.511479-5.917791 21.419172 0l77.557396 77.557396c5.917791 5.917791 5.917791 15.501381 0 21.419172a15.060071 15.060071 0 0 1-10.704536 4.433294z" fill="#FFFFFF" p-id="11897"></path><path d="M512.131282 502.214438c-3.87787 0-7.75574-1.474398-10.714635-4.433294-5.917791-5.917791-5.917791-15.501381 0-21.419172l77.547298-77.557396c5.917791-5.917791 15.511479-5.917791 21.419171 0 5.917791 5.917791 5.917791 15.501381 0 21.419172l-77.547297 77.557396a15.060071 15.060071 0 0 1-10.704537 4.433294z" fill="#FFFFFF" p-id="11898"></path></svg>