<svg t="1591330763495" class="icon" viewBox="0 0 1024 1024" version="1.1" xmlns="http://www.w3.org/2000/svg" p-id="5131" width="200" height="200"><path d="M512 512m-384 0a384 384 0 1 0 768 0 384 384 0 1 0-768 0Z" fill="#DEE6FA" p-id="5132"></path><path d="M511.99744 231.68C583.39968 231.68 641.28 288.98816 641.28 359.66976 641.28 430.36928 583.40224 487.68 511.99744 487.68 440.59904 487.68 382.72 430.36928 382.72 359.66976 382.72 288.97024 440.61696 231.68 511.99744 231.68zM463.58784 518.4h108.34432C664.66944 518.4 739.84 592.5504 739.84 684.05504v10.67264C739.84 730.78912 664.6528 732.16 571.93216 732.16h-108.34432C370.84544 732.16 295.68 732.10368 295.68 694.72768v-10.67264C295.68 592.5504 370.84544 518.4 463.58784 518.4z" fill="#FFFFFF" p-id="5133"></path></svg>