<svg t="1591579752414" class="icon" viewBox="0 0 1024 1024" version="1.1" xmlns="http://www.w3.org/2000/svg" p-id="5504" width="200" height="200"><path d="M512 1.28C229.888 1.28 1.28 229.888 1.28 512s228.608 510.72 510.72 510.72 510.72-228.608 510.72-510.72S794.112 1.28 512 1.28zM408.192 634.752c-0.128 0-0.256 0-0.384 0l-140.16-1.792c-66.56-0.896-119.936-55.808-119.04-122.624l0.384-26.624c0.384-32 13.44-62.08 36.736-84.736 23.296-22.656 54.016-34.56 85.504-34.56l197.12 2.56c66.56 0.896 119.936 55.936 119.04 122.624-0.128 13.312-11.008 24.064-24.32 24.064-0.128 0-0.256 0-0.384 0-13.44-0.128-24.192-11.136-24.064-24.576 0.512-39.936-31.36-72.832-71.04-73.344l-197.12-2.56c-19.072-0.896-36.992 7.168-50.944 20.736-13.952 13.696-21.76 31.616-22.016 50.56l-0.384 26.624c-0.512 39.936 31.36 72.704 71.04 73.344l140.16 1.792c13.44 0.128 24.192 11.264 23.936 24.704C432.384 624 421.504 634.752 408.192 634.752zM874.88 519.936c-0.896 66.176-54.912 119.424-120.704 119.424-0.512 0-1.024 0-1.664 0l-197.12-2.688c-66.56-0.896-119.936-55.808-119.04-122.624 0.128-13.44 11.776-24.448 24.704-23.936 13.44 0.128 24.192 11.264 23.936 24.704-0.512 39.168 32 72.704 71.04 73.344l197.12 2.688c0.384 0 0.64 0 1.024 0 39.296 0 71.552-31.872 72.064-71.424l0.384-26.624c0.512-39.168-32-72.832-71.04-73.344l-140.16-1.92c-13.44-0.128-24.192-11.264-23.936-24.704 0.128-13.44 12.16-23.68 24.704-23.936l140.16 1.92c65.408 0.896 119.936 56.96 119.04 122.624L874.88 519.936z" fill="#4863e4" p-id="5505"></path></svg>