<svg t="1591253999008" class="icon" viewBox="0 0 1024 1024" version="1.1" xmlns="http://www.w3.org/2000/svg" p-id="8577" width="200" height="200"><path d="M512 512m-492.307692 0a492.307692 492.307692 0 1 0 984.615384 0 492.307692 492.307692 0 1 0-984.615384 0Z" fill="#FF9A00" p-id="8578"></path><path d="M512 1024C229.681231 1024 0 794.318769 0 512S229.681231 0 512 0s512 229.681231 512 512-229.681231 512-512 512zM512 19.692308C240.541538 19.692308 19.692308 240.541538 19.692308 512s220.849231 492.307692 492.307692 492.307692 492.307692-220.849231 492.307692-492.307692S783.458462 19.692308 512 19.692308z" fill="#FFFFFF" p-id="8579"></path><path d="M613.897846 495.291077h-203.815384c-6.252308 0-11.323077 5.297231-11.323077 11.835077v5.897846c0 6.537846 5.070769 11.844923 11.323077 11.844923h203.815384c6.252308 0 11.323077-5.307077 11.323077-11.844923v-5.897846c0.009846-6.537846-5.070769-11.835077-11.323077-11.835077zM507.116308 601.964308H409.6c-5.986462 0-10.830769 5.326769-10.830769 11.894154v5.986461c0 6.557538 4.854154 11.884308 10.830769 11.884308h97.516308c5.986462 0 10.830769-5.316923 10.830769-11.884308v-5.986461c0.009846-6.567385-4.844308-11.894154-10.830769-11.894154zM714.614154 246.153846H309.376C296.201846 246.153846 285.538462 257.171692 285.538462 270.769231v490.476307c0 13.587692 10.673231 24.615385 23.837538 24.615385h288.462769c4.391385-0.915692 12.169846-3.584 20.352-11.510154L726.429538 666.092308s9.393231-9.028923 12.022154-24.054154V270.769231c0-13.597538-10.673231-24.615385-23.837538-24.615385z m-5.966769 416.246154c-0.029538-0.305231-0.108308-0.600615-0.167385-0.896l0.167385-0.088615v0.984615z m-0.07877-24.792615h-92.553846c-21.257846 0-26.496 6.370462-26.496 26.594461v60.977231l-0.009846 0.009846v31.094154H328.536615c-7.236923 0-13.105231-6.055385-13.10523-13.508923V289.250462c0-7.473231 5.868308-13.508923 13.10523-13.508924h366.92677c7.236923 0 13.105231 6.045538 13.10523 13.508924v348.356923z m-94.670769-255.113847h-203.815384c-6.252308 0-11.323077 5.316923-11.323077 11.884308v5.986462c0 6.557538 5.070769 11.884308 11.323077 11.884307h203.815384c6.252308 0 11.323077-5.316923 11.323077-11.884307v-5.986462c0.009846-6.557538-5.070769-11.884308-11.323077-11.884308z" fill="#FFFFFF" p-id="8580"></path></svg>