<svg t="1591248666847" class="icon" viewBox="0 0 1024 1024" version="1.1" xmlns="http://www.w3.org/2000/svg" p-id="14126" width="200" height="200"><path d="M512 0C229.248 0 0 229.248 0 512c0 282.794667 229.248 512 512 512 282.794667 0 512-229.205333 512-512 0-282.752-229.205333-512-512-512z m75.861333 671.061333v10.24c0 32.256-23.552 58.837333-54.4 63.957334 0.042667 0.341333 0.213333 0.682667 0.213334 1.066666v10.837334c0 5.973333-4.864 10.837333-10.837334 10.837333h-21.674666a10.837333 10.837333 0 0 1-10.837334-10.837333v-10.837334c0-0.384 0.170667-0.682667 0.213334-1.066666a64.938667 64.938667 0 0 1-54.4-63.957334v-10.24A214.442667 214.442667 0 0 1 512 256a214.442667 214.442667 0 1 1 75.861333 415.061333z" fill="#2C9EFF" p-id="14127"></path><path d="M581.845333 443.861333l-64.896 64.896-54.698666-54.656c-8.448-8.448-16 1.365333-15.744 1.152l-60.544 60.544a6.997333 6.997333 0 0 0 0 9.898667l9.898666 9.898667a6.997333 6.997333 0 0 0 9.898667 0l48.768-48.768 54.698667 54.656c8.746667 9.088 16-1.365333 15.744-1.152l77.013333-77.013334 17.877333 17.28 20.864-83.669333-82.901333 23.765333 24.021333 23.168z" fill="#2C9EFF" p-id="14128"></path></svg>