<svg t="1591248090941" class="icon" viewBox="0 0 1024 1024" version="1.1" xmlns="http://www.w3.org/2000/svg" p-id="5150" width="200" height="200"><path d="M512 1024a515.783111 515.783111 0 0 1-103.196444-10.410667 509.155556 509.155556 0 0 1-183.068445-77.027555 513.507556 513.507556 0 0 1-185.514667-225.251556 509.411556 509.411556 0 0 1-29.809777-96.113778 517.006222 517.006222 0 0 1 0-206.364444 509.155556 509.155556 0 0 1 77.027555-183.096889 513.507556 513.507556 0 0 1 225.251556-185.514667A509.44 509.44 0 0 1 408.803556 10.410667a517.006222 517.006222 0 0 1 206.364444 0 509.155556 509.155556 0 0 1 183.068444 77.027555 513.507556 513.507556 0 0 1 185.486223 225.251556 509.44 509.44 0 0 1 29.838222 96.113778 517.006222 517.006222 0 0 1 0 206.364444 509.155556 509.155556 0 0 1-77.027556 183.068444 513.507556 513.507556 0 0 1-225.251555 185.486223 509.411556 509.411556 0 0 1-96.113778 29.838222A515.783111 515.783111 0 0 1 512 1024z m130.247111-488.334222a140.572444 140.572444 0 1 0 0.170667 281.116444 140.885333 140.885333 0 0 0 140.657778-140.401778 139.889778 139.889778 0 0 0-41.073778-99.328 140.600889 140.600889 0 0 0-99.783111-41.386666zM326.200889 207.075556a54.044444 54.044444 0 0 0-53.902222 53.873777v466.887111a54.044444 54.044444 0 0 0 53.902222 53.873778h186.680889a166.428444 166.428444 0 0 1-33.336889-143.644444h-171.320889V278.897778h287.516444v237.027555a168.362667 168.362667 0 0 1 35.953778-6.229333V260.949333a54.044444 54.044444 0 0 0-53.930666-53.873777zM656.782222 759.182222h-26.339555v-34.503111h-38.115556v-14.08h38.115556V691.2l-0.227556-0.227556h-37.859555v-14.08h29.952l-44.259556-79.644444h29.952l35.640889 69.660444 35.612444-69.660444h29.952l-44.259555 79.644444h30.179555v14.08H657.066667l-0.227556 0.227556v19.512889h38.343111v14.08h-38.371555v34.503111z" fill="#06C099" p-id="5151"></path></svg>