<?xml version="1.0" standalone="no"?><!DOCTYPE svg PUBLIC "-//W3C//DTD SVG 1.1//EN" "http://www.w3.org/Graphics/SVG/1.1/DTD/svg11.dtd"><svg class="icon" width="200px" height="200.00px" viewBox="0 0 1024 1024" version="1.1" xmlns="http://www.w3.org/2000/svg"><path d="M512 497.371429m-487.619048 0a487.619048 487.619048 0 1 0 975.238096 0 487.619048 487.619048 0 1 0-975.238096 0Z" fill="#ADCDF7" /><path d="M512 497.371429m-404.72381 0a404.72381 404.72381 0 1 0 809.44762 0 404.72381 404.72381 0 1 0-809.44762 0Z" fill="#1C89E8" /><path d="M503.856762 755.273143c-136.533333 0-248.685714-112.152381-248.685714-248.685714s112.152381-248.685714 248.685714-248.685715 248.685714 112.152381 248.685714 248.685715-112.152381 248.685714-248.685714 248.685714z m0-453.485714c-112.152381 0-199.92381 92.647619-199.92381 199.923809 0 112.152381 92.647619 199.92381 199.92381 199.92381 112.152381 0 199.92381-92.647619 199.923809-199.92381 0-107.27619-87.771429-199.92381-199.923809-199.923809z" fill="#FFFFFF" /><path d="M508.732952 301.787429m-112.152381 0a112.152381 112.152381 0 1 0 224.304762 0 112.152381 112.152381 0 1 0-224.304762 0Z" fill="#1C89E8" /><path d="M503.856762 301.787429m-82.895238 0a82.895238 82.895238 0 1 0 165.790476 0 82.895238 82.895238 0 1 0-165.790476 0Z" fill="#FFFFFF" /><path d="M299.056762 628.49219m-112.152381 0a112.152381 112.152381 0 1 0 224.304762 0 112.152381 112.152381 0 1 0-224.304762 0Z" fill="#1C89E8" /><path d="M299.056762 628.49219m-82.895238 0a82.895238 82.895238 0 1 0 165.790476 0 82.895238 82.895238 0 1 0-165.790476 0Z" fill="#FFFFFF" /><path d="M713.532952 628.49219m-112.152381 0a112.152381 112.152381 0 1 0 224.304762 0 112.152381 112.152381 0 1 0-224.304762 0Z" fill="#1C89E8" /><path d="M713.532952 628.49219m-82.895238 0a82.895238 82.895238 0 1 0 165.790476 0 82.895238 82.895238 0 1 0-165.790476 0Z" fill="#FFFFFF" /></svg>