<svg t="1591248438543" class="icon" viewBox="0 0 1024 1024" version="1.1" xmlns="http://www.w3.org/2000/svg" p-id="11707" width="200" height="200"><path d="M512 512m-512 0a512 512 0 1 0 1024 0 512 512 0 1 0-1024 0Z" fill="#2DC888" p-id="11708"></path><path d="M723.083636 525.661091a39.237818 39.237818 0 0 1 54.155637-5.12s0.558545 0.558545 1.140363 0.558545c15.965091 14.266182 17.105455 38.213818 3.421091 54.202182l-130.001454 148.898909a92.229818 92.229818 0 0 1-68.980364 31.394909h-195.025454l-34.21091 34.210909L232.727273 671.720727l86.667636-86.155636a133.073455 133.073455 0 0 1 136.843636-30.813091l18.804364 6.842182h118.597818a37.003636 37.003636 0 0 1 35.933091 38.237091c-1.722182 20.526545-18.245818 36.514909-38.772363 35.933091h-70.144c-6.842182 1.163636-11.962182 6.283636-12.544 12.567272-1.140364 7.982545 4.561455 14.824727 12.567272 15.965091h70.120728a67.141818 67.141818 0 0 0 67.258181-63.906909v-1.140363l65.024-73.588364zM581.213091 337.454545h105.914182L512.302545 512 337.454545 337.454545h105.89091v-67.490909a37.236364 37.236364 0 0 1 37.236363-37.236363h63.418182a37.236364 37.236364 0 0 1 37.236364 37.236363v67.490909z" fill="#FFFFFF" p-id="11709"></path></svg>