<?xml version="1.0" standalone="no"?><!DOCTYPE svg PUBLIC "-//W3C//DTD SVG 1.1//EN" "http://www.w3.org/Graphics/SVG/1.1/DTD/svg11.dtd"><svg class="icon" width="200px" height="200.00px" viewBox="0 0 1024 1024" version="1.1" xmlns="http://www.w3.org/2000/svg"><path fill="#d81e06" d="M512 1024C229.2224 1024 0 794.7776 0 512S229.2224 0 512 0s512 229.2224 512 512-229.2224 512-512 512zM167.8336 349.0816c-11.0336 0-16.5632 3.8912-16.5632 11.648 0 7.7568 5.5296 11.6224 16.5632 11.6224h176.3328c11.0336 0 16.5632-3.8656 16.5632-11.6224 0-7.7568-5.5296-11.648-16.5632-11.648H167.8336z m239.4368 19.8656c0-13.2352-3.8656-19.8656-11.648-19.8656-7.7312 0-11.6224 6.6304-11.6224 19.8656v169.728c0 13.2608 3.8912 19.8656 11.648 19.8656 7.7568 0 11.6224-6.6048 11.6224-19.84v-169.7536z m359.3984 56.6784c-8.96-8.96-17.92-8.96-26.88 0-8.96 8.96-8.96 17.92 0 26.88l52.8128 52.7872c8.96 8.96 17.92 8.96 26.88 0 8.96-8.96 8.96-17.92 0-26.88l-52.8128-52.7872z m-486.0672 179.456l-12.2368 71.68c-1.8944 11.4176-0.128 20.4544 5.2736 27.136 5.248 6.912 12.6464 10.4448 22.1952 10.5472 9.4976 0 18.688-3.7376 25.984-10.5472 7.5008-6.6816 12.288-15.7184 14.4128-27.136l12.288-71.68h-14.4896l-11.9808 69.888c-1.3568 7.424-4.1728 13.0304-8.3968 16.896a21.376 21.376 0 0 1-15.0016 6.0928c-5.632 0-9.8816-2.048-12.8-6.0928-2.9952-3.8656-3.8912-9.472-2.7136-16.896l11.9552-69.888h-14.4896z m76.416 31.232l-13.2864 77.2096h13.7472l7.8592-45.952c0.9216-5.4016 2.9184-9.5232 5.9904-12.3392a14.72 14.72 0 0 1 10.4448-4.3264 10.496 10.496 0 0 1 8.8832 4.3264c2.048 2.816 2.6112 6.912 1.6896 12.3392l-7.8592 45.952h13.7216l8.7808-51.3024c1.28-8.832 0-15.5136-3.84-20.0704a18.176 18.176 0 0 0-14.2848-6.784 25.344 25.344 0 0 0-19.2512 9.1648h-0.256l1.3824-8.192h-13.7216z m68.5312 0l-13.2352 77.184h13.7216l13.2352-77.184h-13.7216z m5.3248-31.232l-2.6624 15.5648h13.7472l2.6624-15.5648h-13.7472z m13.2608 69.76c-1.408 8.1152-1.8688 14.336-1.408 18.6112 0.4096 3.968 1.6896 7.7824 3.7376 11.0848a20.48 20.48 0 0 0 6.7328 6.528c2.9696 2.1504 7.04 3.2512 12.2112 3.3536 4.7104 0.0768 9.3696-1.0752 13.6192-3.328a18.8672 18.8672 0 0 0 4.9408-3.2256c1.3312-0.9728 2.6112-2.0992 3.7632-3.328 3.2-3.072 5.8112-6.8864 7.6544-11.1104 1.8176-4.2752 3.4304-10.4704 4.8128-18.5856 1.408-8.1408 1.92-14.3872 1.5872-18.7392a20.7872 20.7872 0 0 0-3.9168-10.7776 19.6352 19.6352 0 0 0-6.4-6.912c-3.0208-1.9456-7.168-2.944-12.544-3.072a29.312 29.312 0 0 0-22.3488 9.984 35.072 35.072 0 0 0-7.4752 10.752c-1.8944 4.3776-3.5584 10.624-4.9664 18.7648z m42.368 0.1536h-0.0256a79.3344 79.3344 0 0 1-2.6112 11.5712 19.968 19.968 0 0 1-3.84 6.6816 16.9984 16.9984 0 0 1-5.12 3.9424 14.3872 14.3872 0 0 1-6.8608 1.6384 11.52 11.52 0 0 1-6.144-1.6384 13.2608 13.2608 0 0 1-3.8912-3.9424 18.176 18.176 0 0 1-1.408-6.6816c0.0512-3.9424 0.4608-7.8848 1.2288-11.7248 0.5888-4.0448 1.536-8.0384 2.816-11.904a23.4752 23.4752 0 0 1 3.6608-6.4 16.1024 16.1024 0 0 1 11.9552-5.632 11.8272 11.8272 0 0 1 6.2976 1.536 8.1152 8.1152 0 0 1 3.7632 4.096 13.0048 13.0048 0 0 1 1.5872 6.4 79.5648 79.5648 0 0 1-1.408 12.032z m31.5904-38.656l-13.3632 77.1584h13.7472l7.8592-45.952c0.9216-5.4016 2.9184-9.5232 5.9904-12.3392a14.72 14.72 0 0 1 10.4448-4.3264 10.496 10.496 0 0 1 8.8832 4.3264c2.048 2.816 2.6112 6.9376 1.6896 12.3392l-7.8592 45.952h13.7216l8.7808-51.3024c1.3056-8.832 0.0256-15.5136-3.84-20.0704a18.176 18.176 0 0 0-14.2848-6.784 25.3696 25.3696 0 0 0-19.2 9.1904h-0.256l1.408-8.192h-13.7216z m74.752-31.232l-18.5856 108.3904h14.464l7.2448-42.3168h21.9648a32.256 32.256 0 0 0 24.2944-10.7008 43.008 43.008 0 0 0 11.2128-21.9392c1.0496-5.12 0.9472-10.4192-0.2816-15.4624a20.5824 20.5824 0 0 0-5.5552-10.4192 22.5792 22.5792 0 0 0-9.5232-6.4 46.464 46.464 0 0 0-10.6496-1.1776h-34.6112z m5.7856 50.56l5.9904-35.0208h20.9152a14.4128 14.4128 0 0 1 9.8304 3.0464 10.24 10.24 0 0 1 3.6864 5.2736 22.4512 22.4512 0 0 1 0 9.1392 23.6032 23.6032 0 0 1-5.888 11.904 17.3312 17.3312 0 0 1-13.1072 5.632h-21.4272z m89.2672 50.9952l-1.152 6.8608h13.7472l9.0368-52.7104c1.536-9.4976 0.0768-16.128-4.4032-19.9168-4.4544-3.7632-10.9824-5.6064-19.5584-5.504-10.112-0.2048-18.432 3.584-24.9344 11.3152l9.1648 9.2672a13.2352 13.2352 0 0 1 5.632-4.736 23.8592 23.8592 0 0 1 8.2944-1.1776c9.4208-0.2048 13.4912 3.072 12.2624 9.8816l-1.3824 8.1152h-18.944c-7.2704 0.1024-13.1584 2.304-17.664 6.6816a28.16 28.16 0 0 0-8.448 16.128c-1.1776 6.8096 0.0256 12.3648 3.6096 16.7424 3.328 4.4544 8.8064 6.7328 16.384 6.8352 3.84 0.1536 7.6288-0.512 11.2128-1.92a15.3088 15.3088 0 0 0 6.912-5.888h0.256z m4.4544-25.856l-0.9472 5.504c-1.024 5.8112-2.7136 9.5232-5.12 11.1616-2.6624 1.664-6.8352 2.432-12.544 2.3296-4.5312 0-7.6032-1.024-9.216-3.0464a7.3984 7.3984 0 0 1-1.9456-6.6816c0.9216-5.9904 5.376-9.088 13.3888-9.2928h16.384z m25.728-44.4928l11.776 74.1888-5.9648 12.8768a11.4432 11.4432 0 0 1-4.096 5.0688 9.728 9.728 0 0 1-5.2736 1.6384h-3.9936l-2.5088 14.6432h4.5312a23.7056 23.7056 0 0 0 11.904-3.2c3.6864-2.2272 6.9888-6.2464 9.856-12.032l45.312-93.184h-14.5408l-25.344 54.0672h-0.256l-6.8608-54.0672h-14.5408z m15.0016-268.544v-28.0064c0-9.2928-3.8656-13.952-11.6224-13.952-7.5776 0-11.4688 4.4544-11.6224 13.312a16.6144 16.6144 0 0 0-28.16-8.2944l-64.768 66.7136V358.144c0-2.048-0.384-4.096-1.1264-5.9904a16.6656 16.6656 0 0 0-16.1536-12.9024H444.672l-7.7312-7.552a16.6144 16.6144 0 1 0-23.168 23.8848l12.544 12.2368a16.512 16.512 0 0 0 11.9552 4.6848l1.2288 0.0768h144.2304v59.1872l-13.184 13.568-45.6704-45.8496a16.4352 16.4352 0 0 0-3.1744-2.4576 16.6144 16.6144 0 0 0-23.1936 0.256l-57.728 57.9072a16.6144 16.6144 0 1 0 23.4752 23.552l46.3104-46.464 46.9504 47.104a16.4096 16.4096 0 0 0 6.0672 3.84 16.64 16.64 0 0 0 19.584-3.1232l0.5632-0.5632v39.7568a2.56 2.56 0 0 1-1.9968 2.816l-17.152 0.256a16.6912 16.6912 0 0 0 0.4352 33.3056l32.8704-0.4352c0.4352 0 0.8704 0 1.28-0.0768 0.4352-0.0768 0.768 0.0768 1.1776 0.0768a16.6912 16.6912 0 0 0 16.5888-16.6656v-93.2864l88.5504-91.2128a16.64 16.64 0 0 0 4.352-8.2432v175.5136c0 9.2928 3.84 13.9264 11.6224 13.9264 7.7568 0 11.6224-4.6336 11.6224-13.9264V398.336a16.5632 16.5632 0 0 0 6.528 1.3568h92.6464v122.6496a2.56 2.56 0 0 1 0 0.3328v0.2048a2.56 2.56 0 0 1-1.9968 2.304h-21.888a16.6912 16.6912 0 0 0 0 33.3312h40.2432a19.968 19.968 0 0 0 16.9216-19.4304v-139.392h13.8496a16.6912 16.6912 0 0 0 16.6144-16.6656 16.6912 16.6912 0 0 0-16.6912-16.64h-13.824v-23.296c-0.0256-9.1904-7.4496-16.64-16.64-16.6656a16.6912 16.6912 0 0 0-16.5888 16.6656v23.296h-92.6464c-2.304 0-4.5056 0.512-6.528 1.3568z m-521.984 86.3232a16.5376 16.5376 0 0 0 0.9728-3.9936h140.1344a16.7168 16.7168 0 1 0 0-33.3056H145.024a16.7168 16.7168 0 1 0 0 33.3056h32l-30.5408 79.7184a16.7424 16.7424 0 0 0 6.2976 19.84 16.5376 16.5376 0 0 0 12.544 5.7856h176.128a16.384 16.384 0 0 0 3.7376-0.4352 16.7168 16.7168 0 0 0 16.256-22.144l-17.92-51.3024a16.64 16.64 0 1 0-31.36 11.0592l9.3696 26.7776a2.56 2.56 0 0 1-1.9968 2.7392H188.5696a2.56 2.56 0 0 1-2.2016-3.5072l24.704-64.512z"  /></svg>